<svg width="49" height="61" viewBox="0 0 49 61" fill="none" xmlns="http://www.w3.org/2000/svg">
<g clip-path="url(#clip0_3281_3445)">
<path d="M36.2515 30.7032H13.3432C11.7673 30.7032 10.5347 29.3139 10.7196 27.7197L13.0527 7.1111C13.4048 3.96727 16.0372 1.58936 19.1715 1.58936H30.432C33.5574 1.58936 36.1899 3.96727 36.5508 7.1111L38.8839 27.7197C39.06 29.305 37.8362 30.7032 36.2603 30.7032H36.2515Z" stroke="white" stroke-width="2" stroke-miterlimit="10" stroke-linecap="round"/>
<path d="M39.4905 30.6943H10.0936C7.63319 30.6943 5.63867 32.7119 5.63867 35.2008C5.63867 37.6896 7.63319 39.7073 10.0936 39.7073H39.4905C41.9508 39.7073 43.9453 37.6896 43.9453 35.2008C43.9453 32.7119 41.9508 30.6943 39.4905 30.6943Z" stroke="white" stroke-width="2" stroke-miterlimit="10" stroke-linecap="round"/>
<path d="M24.7969 39.7073V59.8171" stroke="white" stroke-width="2" stroke-miterlimit="10" stroke-linecap="round"/>
<path d="M40.4421 59.8172V56.8158C40.4421 54.5982 38.6637 52.8081 36.4803 52.8081H13.1142C10.922 52.8081 9.15234 54.6071 9.15234 56.8158V59.8172" stroke="white" stroke-width="2" stroke-miterlimit="10" stroke-linecap="round"/>
<path d="M1.67773 29.2605V32.2618C1.67773 34.4794 3.45616 36.2696 5.63958 36.2696" stroke="white" stroke-width="2" stroke-miterlimit="10" stroke-linecap="round"/>
<path d="M47.9169 29.2605V32.2618C47.9169 34.4794 46.1385 36.2696 43.9551 36.2696" stroke="white" stroke-width="2" stroke-miterlimit="10" stroke-linecap="round"/>
</g>
<defs>
<clipPath id="clip0_3281_3445">
<rect width="48" height="60" fill="white" transform="translate(0.796875 0.707764)"/>
</clipPath>
</defs>
</svg>
