<svg width="345" height="456" viewBox="0 0 345 456" fill="none" xmlns="http://www.w3.org/2000/svg" style="translate: none; rotate: none; scale: none; opacity: 0.5328; transform: translate3d(0px, 46.7186%, 0px);"><path d="M168.758 486V330.287L168.688 330.175V234.61C168.688 232.731 170.216 231.189 172.109 231.189C174.001 231.189 175.53 232.717 175.53 234.61V290.132H175.6V486H168.758Z" fill="#9C4F39" style="translate: none; rotate: none; scale: none; transform-origin: 0px 0px;" data-svg-origin="168.68800354003906 231.18899536132812" transform="matrix(1,0,0,1,7.0078,-16.3515)"/><path d="M59.7855 287.874C58.8742 287.874 58.0189 287.523 57.374 286.878C56.042 285.546 56.042 283.373 57.374 282.041L125.122 214.307C125.767 213.663 126.622 213.312 127.533 213.312C128.445 213.312 129.3 213.663 129.945 214.307C130.59 214.952 130.94 215.808 130.94 216.719C130.94 217.63 130.59 218.486 129.945 219.131L62.1971 286.864C61.5521 287.509 60.6969 287.86 59.7855 287.86V287.874Z" fill="#9C4F39" style="translate: none; rotate: none; scale: none; transform-origin: 0px 0px;" data-svg-origin="56.375 213.31199645996094" transform="matrix(1,0,0,1,7.0078,-16.3515)"/><path d="M13.2257 175.373C11.347 175.373 9.80469 173.845 9.80469 171.952C9.80469 170.059 11.3329 168.531 13.2257 168.531H109.029C110.908 168.531 112.45 170.059 112.45 171.952C112.45 173.845 110.922 175.373 109.029 175.373H13.2257Z" fill="#9C4F39" style="translate: none; rotate: none; scale: none; transform-origin: 0px 0px;" data-svg-origin="9.80469036102295 168.531005859375" transform="matrix(1,0,0,1,7.0078,-16.3515)"/><path d="M235.311 174.7C234.4 174.7 233.545 174.335 232.9 173.676C232.255 173.017 231.904 172.162 231.918 171.25C231.918 169.372 233.461 167.857 235.339 167.857L331.157 168.544C332.068 168.544 332.923 168.909 333.568 169.568C334.213 170.213 334.564 171.082 334.549 171.994C334.549 173.858 333.007 175.387 331.128 175.387L235.311 174.714V174.7Z" fill="#9C4F39" style="translate: none; rotate: none; scale: none; transform-origin: 0px 0px;" data-svg-origin="231.9176025390625 167.85699462890625" transform="matrix(1,0,0,1,7.0078,-16.3515)"/><path d="M284.608 287.762C283.697 287.762 282.841 287.412 282.196 286.767L214.21 218.78C213.565 218.136 213.215 217.28 213.215 216.369C213.215 215.458 213.565 214.602 214.21 213.957C214.855 213.312 215.711 212.962 216.622 212.962C217.533 212.962 218.388 213.312 219.033 213.957L287.02 281.944C288.351 283.275 288.351 285.449 287.02 286.781C286.375 287.426 285.519 287.776 284.608 287.776V287.762Z" fill="#9C4F39" style="translate: none; rotate: none; scale: none; transform-origin: 0px 0px;" data-svg-origin="213.21499633789062 212.96200561523438" transform="matrix(1,0,0,1,7.0078,-16.3515)"/><path d="M102.605 343.956C102.156 343.956 101.722 343.872 101.301 343.69C100.46 343.339 99.8009 342.694 99.4504 341.853C99.0999 341.012 99.0999 340.073 99.4504 339.231L140.503 239.839C141.036 238.563 142.269 237.736 143.672 237.736C144.12 237.736 144.555 237.82 144.961 237.988C145.803 238.339 146.462 238.984 146.812 239.825C147.163 240.666 147.163 241.606 146.812 242.447L105.76 341.839C105.227 343.129 103.993 343.956 102.605 343.956Z" fill="#9C4F39" style="translate: none; rotate: none; scale: none; transform-origin: 0px 0px;" data-svg-origin="99.1875228881836 237.73599243164062" transform="matrix(1,0,0,1,7.0078,-16.3515)"/><path d="M3.84722 245.196C2.45918 245.196 1.22536 244.368 0.692575 243.092C0.342058 242.251 0.342058 241.326 0.692575 240.485C1.04309 239.643 1.70206 238.984 2.5433 238.634L101.852 197.385C102.258 197.217 102.707 197.133 103.155 197.133C104.544 197.133 105.777 197.96 106.31 199.236C106.661 200.077 106.661 201.003 106.31 201.858C105.96 202.699 105.301 203.358 104.459 203.708L5.15114 244.943C4.73052 245.111 4.29588 245.21 3.84722 245.21V245.196Z" fill="#9C4F39" style="translate: none; rotate: none; scale: none; transform-origin: 0px 0px;" data-svg-origin="0.4296872615814209 197.13299560546875" transform="matrix(1,0,0,1,7.0078,-16.3515)"/><path d="M143.52 106.293C142.132 106.293 140.898 105.466 140.365 104.19L99.1165 4.88145C98.4014 3.14289 99.2287 1.13794 100.967 0.408866C101.374 0.240618 101.822 0.156494 102.285 0.156494C103.673 0.156494 104.907 0.983712 105.44 2.25959L146.689 101.568C147.404 103.306 146.576 105.311 144.838 106.04C144.417 106.209 143.983 106.293 143.52 106.293Z" fill="#9C4F39" style="translate: none; rotate: none; scale: none; transform-origin: 0px 0px;" data-svg-origin="98.85935974121094 0.15649396181106567" transform="matrix(1,0,0,1,7.0078,-16.3515)"/><path d="M200.707 106.251C200.258 106.251 199.823 106.167 199.403 105.984C198.561 105.634 197.902 104.989 197.552 104.148C197.201 103.306 197.201 102.367 197.552 101.526L238.604 2.13337C239.137 0.857492 240.385 0.0302734 241.773 0.0302734C242.222 0.0302734 242.656 0.114397 243.063 0.282645C243.904 0.633161 244.563 1.27811 244.914 2.11935C245.264 2.96059 245.264 3.89997 244.914 4.74121L203.861 104.134C203.328 105.423 202.095 106.251 200.707 106.251Z" fill="#9C4F39" style="translate: none; rotate: none; scale: none; transform-origin: 0px 0px;" data-svg-origin="197.28875732421875 0.030273402109742165" transform="matrix(1,0,0,1,7.0078,-16.3515)"/><path d="M340.693 244.971C340.244 244.971 339.809 244.887 339.389 244.705L239.996 203.652C239.155 203.302 238.496 202.657 238.146 201.815C237.795 200.974 237.795 200.035 238.146 199.194C238.678 197.904 239.912 197.076 241.314 197.076C241.763 197.076 242.198 197.161 242.604 197.329L341.997 238.381C342.838 238.732 343.497 239.377 343.847 240.218C344.198 241.059 344.198 241.999 343.847 242.84C343.315 244.13 342.081 244.957 340.693 244.957V244.971Z" fill="#9C4F39" style="translate: none; rotate: none; scale: none; transform-origin: 0px 0px;" data-svg-origin="237.88275146484375 197.0760040283203" transform="matrix(1,0,0,1,7.0078,-16.3515)"/><path d="M242.186 343.718C240.798 343.718 239.564 342.891 239.031 341.615L197.783 242.307C197.053 240.568 197.895 238.563 199.633 237.834C200.054 237.666 200.489 237.568 200.937 237.568C202.325 237.568 203.573 238.395 204.106 239.671L245.355 338.979C246.084 340.718 245.242 342.722 243.504 343.452C243.083 343.62 242.649 343.704 242.186 343.704V343.718Z" fill="#9C4F39" style="translate: none; rotate: none; scale: none; transform-origin: 0px 0px;" data-svg-origin="197.51959228515625 237.5679931640625" transform="matrix(1,0,0,1,7.0078,-16.3515)"/><rect x="329.996" y="80.6626" width="6.32147" height="104.486" rx="3.16073" transform="rotate(54.268 329.996 80.6626)" fill="#9C4F39" id="line4" style="display: none;"/><rect width="6.32147" height="104.486" rx="3.16073" transform="matrix(-0.583994 0.811758 0.811758 0.583994 21.4453 80.6626)" fill="#9C4F39" id="line1" style="display: none;"/><rect x="277.992" y="50.9478" width="6.32147" height="80.0804" rx="3.16073" transform="rotate(38.1374 277.992 50.9478)" fill="#9C4F39" id="line3" style="display: none;"/><rect width="6.32147" height="80.0804" rx="3.16073" transform="matrix(-0.786532 0.617549 0.617549 0.786532 73.4492 50.9478)" fill="#9C4F39" id="line2" style="display: none;"/><rect width="6.32147" height="102.771" rx="3.16073" transform="matrix(1 0 0 -1 169.277 112.364)" fill="#9C4F39" id="line5" style="display: none;"/></svg>