<svg width="57" height="57" viewBox="0 0 57 57" fill="none" xmlns="http://www.w3.org/2000/svg">
<path d="M8.71396 29.4291C12.1329 29.4291 14.9045 26.6575 14.9045 23.2386C14.9045 19.8197 12.1329 17.0481 8.71396 17.0481C5.29503 17.0481 2.52344 19.8197 2.52344 23.2386C2.52344 26.6575 5.29503 29.4291 8.71396 29.4291Z" stroke="white" stroke-width="2" stroke-miterlimit="10" stroke-linecap="round"/>
<path d="M1.2168 55.318V42.7945C1.2168 38.6502 4.57107 35.283 8.71536 35.283C12.8596 35.283 16.2139 38.6372 16.2139 42.7815V55.305" stroke="white" stroke-width="2" stroke-miterlimit="10" stroke-linecap="round"/>
<path d="M31.1808 22.6686C34.5997 22.6686 37.3713 19.897 37.3713 16.4781C37.3713 13.0592 34.5997 10.2876 31.1808 10.2876C27.7618 10.2876 24.9902 13.0592 24.9902 16.4781C24.9902 19.897 27.7618 22.6686 31.1808 22.6686Z" stroke="white" stroke-width="2" stroke-miterlimit="10" stroke-linecap="round"/>
<path d="M23.6836 48.5704V36.0469C23.6836 31.9026 27.0379 28.5354 31.1822 28.5354C35.3264 28.5354 38.6807 31.8897 38.6807 36.034V48.5575" stroke="white" stroke-width="2" stroke-miterlimit="10" stroke-linecap="round"/>
<path d="M11.4473 11.8417C15.8376 5.67713 23.0513 1.66235 31.1974 1.66235C44.5756 1.66235 55.4285 12.5152 55.4285 25.8934C55.4285 39.2717 44.5756 50.1245 31.1974 50.1245C27.7265 50.1245 24.437 49.3993 21.4453 48.0783C19.7488 47.3401 18.1688 46.4076 16.7053 45.3068" stroke="white" stroke-width="2" stroke-miterlimit="10" stroke-linecap="round"/>
</svg>
