<svg width="141" height="50" viewBox="0 0 141 50" fill="none" xmlns="http://www.w3.org/2000/svg">
<path d="M49.4623 13.3619C48.9962 12.9105 48.455 12.5495 47.8386 12.3087C47.2222 12.068 46.5306 11.9326 45.7939 11.9326H42.0654V22.0126H45.824C46.5456 22.0126 47.2222 21.8922 47.8536 21.6365C48.47 21.3807 49.0113 21.0347 49.4773 20.5833C49.9434 20.132 50.2892 19.5904 50.5448 18.9735C50.8003 18.3567 50.9357 17.6947 50.9357 16.9726C50.9357 16.2505 50.8003 15.5734 50.5448 14.9717C50.2892 14.3548 49.9284 13.8283 49.4773 13.3769L49.4623 13.3619ZM49.0413 18.9134C48.7256 19.4851 48.2896 19.9364 47.7334 20.2524C47.1771 20.5833 46.5156 20.7338 45.7789 20.7338H43.4486V13.1512H45.7789C46.5156 13.1512 47.1621 13.3167 47.7183 13.6327C48.2746 13.9486 48.7256 14.4 49.0413 14.9717C49.3571 15.5434 49.5224 16.1903 49.5224 16.9275C49.5224 17.6647 49.3721 18.3266 49.0564 18.8983L49.0413 18.9134Z" fill="#9E4F39"/>
<path d="M61.4146 21.9974H66.7518V20.7487H61.4146V17.4389H66.2707V16.2504H61.4146V13.1662H66.6766V11.9175H61.4146H60.9786H60.0615V21.9974H60.9786H61.4146Z" fill="#9E4F39"/>
<path d="M77.2304 21.9974H82.1917V20.7487H77.2304V11.9175H75.8623V21.9974H76.7944H77.2304Z" fill="#9E4F39"/>
<path d="M97.4515 20.7487H92.4902V11.9175H91.1221V21.9974H92.0542H92.4902H97.4515V20.7487Z" fill="#9E4F39"/>
<path d="M112.11 19.7106L113.012 21.9823H114.486L110.381 11.9023H109.389L105.27 21.9823H106.728L107.645 19.7106H112.11ZM109.885 14.1139L111.629 18.522H108.111L109.87 14.1139H109.885Z" fill="#9E4F39"/>
<path d="M47.5978 34.0333C47.9136 33.8377 48.1842 33.6121 48.3796 33.3413C48.6803 32.935 48.8156 32.4536 48.8156 31.912C48.8156 31.4456 48.6953 31.0244 48.4698 30.6332C48.2443 30.242 47.9136 29.9411 47.4625 29.7004C47.0265 29.4597 46.4703 29.3394 45.8088 29.3394H42.0352V39.4193H45.929C46.6356 39.4193 47.237 39.2839 47.7181 39.0282C48.1992 38.7724 48.5751 38.4264 48.8457 38.0051C49.1013 37.5839 49.2366 37.1024 49.2366 36.5608C49.2366 35.9289 49.0562 35.3723 48.6953 34.9059C48.4097 34.5448 48.0338 34.2439 47.5828 34.0183L47.5978 34.0333ZM45.8088 30.5279C46.3049 30.5279 46.6958 30.6633 46.9965 30.9191C47.2972 31.1748 47.4475 31.5509 47.4475 32.0324C47.4475 32.5138 47.2972 32.8899 47.0265 33.1457C46.7409 33.4014 46.35 33.5368 45.8689 33.5368H43.4333V30.5429H45.8088V30.5279ZM47.3874 37.7042C47.0566 38.0503 46.6056 38.2157 46.0192 38.2157H43.4183V34.7103H46.0643C46.4252 34.7103 46.7559 34.7855 47.0265 34.936C47.2972 35.0864 47.5076 35.2971 47.658 35.5679C47.8083 35.8387 47.8685 36.1245 47.8685 36.4555C47.8685 36.9369 47.7031 37.3582 47.3723 37.7042H47.3874Z" fill="#9E4F39"/>
<path d="M61.7297 29.3394L57.6104 39.4193H59.0536L59.9707 37.1325H64.4359L65.338 39.4193H66.8113L62.707 29.3394H61.7147H61.7297ZM60.4518 35.944L62.2108 31.5359L63.9548 35.944H60.4368H60.4518Z" fill="#9E4F39"/>
<path d="M82.1467 36.8015L76.554 29.3394H75.5918V39.4193H76.9599V31.927L82.5527 39.4193H83.5149V29.3394H82.1467V36.8015Z" fill="#9E4F39"/>
<path d="M94.5048 34.8608H99.3609V33.6722H94.5048V30.5881H99.7668V29.3394H94.5048H94.0688H93.1367V39.4193H94.0688H94.5048H99.842V38.1706H94.5048V34.8608Z" fill="#9E4F39"/>
<path d="M114.319 34.6798C114.8 34.4391 115.161 34.1081 115.417 33.6869C115.672 33.2656 115.808 32.7692 115.808 32.1975C115.808 31.6258 115.672 31.1594 115.417 30.7381C115.161 30.3169 114.8 29.9708 114.319 29.7301C113.838 29.4894 113.297 29.354 112.651 29.354H108.952V39.434H110.32V35.056H111.207L114.755 39.434H116.484L112.861 35.0409C113.417 35.0108 113.898 34.9055 114.319 34.6949V34.6798ZM110.32 30.5275H112.605C113.192 30.5275 113.643 30.693 113.959 31.0089C114.274 31.3249 114.425 31.7311 114.425 32.2125C114.425 32.724 114.259 33.1302 113.944 33.4311C113.628 33.732 113.177 33.8825 112.575 33.8825H110.305V30.5275H110.32Z" fill="#9E4F39"/>
<path d="M128.482 36.3348C128.482 36.756 128.407 37.102 128.256 37.3879C128.106 37.6737 127.896 37.8844 127.64 38.0348C127.384 38.1853 127.084 38.2454 126.738 38.2454C126.392 38.2454 126.091 38.1702 125.821 38.0348C125.55 37.8844 125.31 37.6888 125.129 37.418L124.167 38.3056C124.453 38.6968 124.813 38.9977 125.249 39.2233C125.685 39.449 126.197 39.5694 126.783 39.5694C127.369 39.5694 127.895 39.434 128.362 39.1632C128.828 38.8924 129.188 38.5162 129.444 38.0198C129.715 37.5233 129.85 36.9516 129.85 36.2746V29.354H128.482V36.3498V36.3348Z" fill="#9E4F39"/>
<path d="M140.722 29.3394H139.353V39.4193H140.722V29.3394Z" fill="#9E4F39"/>
<path d="M28.2786 4.98181C24.6703 1.64188 19.3933 0.0020051 14.1764 0.633884C9.54584 1.17549 5.69707 3.4322 3.33668 6.96771C-0.301612 12.3989 -0.0911315 19.4097 0.0742455 25.5931L0.119348 27.0223C0.19452 29.9561 0.164451 32.9349 0.134383 35.8235C0.134383 37.328 0.104314 38.8324 0.104314 40.3369V49.3638H16.9126V40.6829H28.3537V29.7003H33.6458V18.2813C33.6458 13.0608 31.6312 8.08102 28.2786 4.96676V4.98181ZM32.9843 29.0233H27.6922V40.0059H16.9126V23.2912V20.4327C16.9126 20.2522 16.7623 20.1018 16.5819 20.1018C16.4015 20.1018 16.2511 20.2522 16.2511 20.4327V25.6683V40.5475V48.6867H0.780857V40.3369C0.780857 38.8324 0.780857 37.328 0.810925 35.8235C0.840994 32.9349 0.856028 29.941 0.795891 27.0073L0.750788 25.563C0.570377 19.4849 0.374931 12.5944 3.89295 7.32879C6.14809 3.97381 9.83149 1.82242 14.2666 1.29585C19.2881 0.709107 24.3546 2.25871 27.8275 5.47829C31.0599 8.45714 32.9843 13.2564 32.9843 18.2964V29.0383V29.0233Z" fill="#9E4F39"/>
<path d="M14.3871 19.2143C14.2518 19.0789 14.0413 19.0789 13.906 19.2143L10.2226 22.9003C10.0873 23.0357 10.0873 23.2463 10.2226 23.3817C10.2827 23.4419 10.3729 23.487 10.4631 23.487C10.5533 23.487 10.6285 23.457 10.7037 23.3817L14.3871 19.6958C14.5224 19.5604 14.5224 19.3497 14.3871 19.2143Z" fill="#9E4F39"/>
<path d="M7.9372 16.6865C7.75679 16.6865 7.60645 16.837 7.60645 17.0175C7.60645 17.198 7.75679 17.3485 7.9372 17.3485H13.1391C13.3195 17.3485 13.4698 17.198 13.4698 17.0175C13.4698 16.837 13.3195 16.6865 13.1391 16.6865H7.9372Z" fill="#9E4F39"/>
<path d="M13.906 14.851C13.906 14.851 14.0563 14.9563 14.1465 14.9563C14.2367 14.9563 14.3119 14.9262 14.3871 14.851C14.5224 14.7156 14.5224 14.5049 14.3871 14.3695L10.7037 10.6836C10.5684 10.5482 10.3579 10.5482 10.2226 10.6836C10.0873 10.819 10.0873 11.0296 10.2226 11.165L13.906 14.851Z" fill="#9E4F39"/>
<path d="M16.5663 8.05078C16.3858 8.05078 16.2354 8.20123 16.2354 8.38176V13.5872C16.2354 13.7678 16.3858 13.9182 16.5663 13.9182C16.7469 13.9182 16.8973 13.7678 16.8973 13.5872V8.38176C16.8973 8.20123 16.7469 8.05078 16.5663 8.05078Z" fill="#9E4F39"/>
<path d="M19.9948 16.6567C19.8144 16.6567 19.6641 16.8072 19.6641 16.9877C19.6641 17.1683 19.8144 17.3338 19.9948 17.3338L25.1967 17.3638C25.3771 17.3638 25.5274 17.2134 25.5274 17.0329C25.5274 16.8523 25.3771 16.6868 25.1967 16.6868L19.9948 16.6567Z" fill="#9E4F39"/>
<path d="M19.2134 19.1992C19.0781 19.0638 18.8676 19.0638 18.7323 19.1992C18.597 19.3346 18.597 19.5452 18.7323 19.6806L22.4157 23.3666C22.4157 23.3666 22.5661 23.4719 22.6563 23.4719C22.7465 23.4719 22.8217 23.4418 22.8968 23.3666C23.0321 23.2312 23.0321 23.0206 22.8968 22.8852L19.2134 19.1992Z" fill="#9E4F39"/>
<path d="M15.1539 20.463C14.9885 20.3878 14.778 20.463 14.7179 20.6436L12.4928 26.0446C12.4176 26.2101 12.4928 26.4208 12.6732 26.4809C12.7183 26.496 12.7634 26.511 12.8085 26.511C12.9438 26.511 13.0641 26.4358 13.1242 26.3004L15.3493 20.8993C15.4245 20.7338 15.3493 20.5232 15.1689 20.463H15.1539Z" fill="#9E4F39"/>
<path d="M13.1245 18.4466C13.0493 18.2811 12.8539 18.1909 12.6885 18.2661L7.29119 20.5077C7.12582 20.583 7.03561 20.7785 7.11078 20.944C7.17092 21.0794 7.29119 21.1547 7.4265 21.1547C7.47161 21.1547 7.51671 21.1547 7.56181 21.1246L12.9591 18.8829C13.1245 18.8077 13.2147 18.6121 13.1395 18.4466H13.1245Z" fill="#9E4F39"/>
<path d="M12.6883 15.784C12.6883 15.784 12.7785 15.8141 12.8236 15.8141C12.9589 15.8141 13.0792 15.7389 13.1393 15.6035C13.2145 15.438 13.1393 15.2274 12.9589 15.1672L7.56161 12.9406C7.39623 12.8654 7.18575 12.9406 7.12562 13.1211C7.05045 13.2866 7.12562 13.4972 7.30603 13.5574L12.7033 15.784H12.6883Z" fill="#9E4F39"/>
<path d="M14.7021 13.4067C14.7622 13.5421 14.8825 13.6173 15.0178 13.6173C15.0629 13.6173 15.108 13.6173 15.1531 13.5872C15.3185 13.512 15.4087 13.3164 15.3335 13.1509L13.0934 7.74983C13.0182 7.58434 12.8228 7.49407 12.6574 7.5693C12.492 7.64452 12.4018 7.8401 12.477 8.00559L14.7171 13.4067H14.7021Z" fill="#9E4F39"/>
<path d="M18.1148 13.6023C18.2501 13.6023 18.3704 13.5271 18.4305 13.3917L20.6556 7.99064C20.7307 7.82515 20.6556 7.61453 20.4752 7.55435C20.3098 7.47912 20.0993 7.55435 20.0392 7.73488L17.8141 13.1359C17.7389 13.3014 17.8141 13.5121 17.9945 13.5722C18.0396 13.5873 18.0847 13.6023 18.1298 13.6023H18.1148Z" fill="#9E4F39"/>
<path d="M25.8437 20.4929L20.4464 18.2663C20.281 18.191 20.0705 18.2663 20.0104 18.4468C19.9352 18.6123 20.0104 18.8229 20.1908 18.8831L25.5881 21.1097C25.5881 21.1097 25.6783 21.1398 25.7234 21.1398C25.8587 21.1398 25.979 21.0646 26.0391 20.9292C26.1143 20.7637 26.0391 20.5531 25.8587 20.4929H25.8437Z" fill="#9E4F39"/>
<path d="M18.4303 20.6434C18.3551 20.4779 18.1597 20.3876 17.9943 20.4629C17.8289 20.5381 17.7387 20.7337 17.8139 20.8991L20.054 26.3002C20.1142 26.4356 20.2344 26.5108 20.3697 26.5108C20.4148 26.5108 20.4599 26.5108 20.505 26.4807C20.6704 26.4055 20.7606 26.2099 20.6855 26.0444L18.4453 20.6434H18.4303Z" fill="#9E4F39"/>
<path d="M19.649 14.0688C19.649 14.0688 19.7843 14.144 19.8595 14.144C19.9647 14.144 20.0549 14.0989 20.1301 14.0086L22.5205 10.9395C22.6408 10.789 22.6108 10.5784 22.4604 10.4581C22.3101 10.3377 22.0996 10.3678 21.9793 10.5182L19.5889 13.5874C19.4686 13.7378 19.4987 13.9484 19.649 14.0688Z" fill="#9E4F39"/>
<path d="M27.5566 10.4579L23.2117 13.5571C23.0614 13.6624 23.0313 13.873 23.1365 14.0235C23.1967 14.1137 23.3019 14.1589 23.4071 14.1589C23.4823 14.1589 23.5424 14.1438 23.6026 14.0987L27.9475 10.9995C28.0978 10.8942 28.1279 10.6835 28.0227 10.5331C27.9174 10.3826 27.7069 10.3525 27.5566 10.4579Z" fill="#9E4F39"/>
<path d="M43.2532 49.4691C43.0126 49.4691 42.8172 49.424 42.6518 49.3337C42.4864 49.2434 42.3361 49.1231 42.2158 48.9576L42.4864 48.6868C42.5766 48.8222 42.6969 48.9125 42.8172 48.9877C42.9375 49.0479 43.0878 49.093 43.2682 49.093C43.4486 49.093 43.5839 49.0479 43.6892 48.9726C43.7944 48.8974 43.8546 48.7921 43.8546 48.6567C43.8546 48.5514 43.8245 48.4611 43.7794 48.3859C43.7343 48.3107 43.6591 48.2655 43.5689 48.2204C43.4787 48.1753 43.3885 48.1301 43.2833 48.1C43.178 48.07 43.0728 48.0248 42.9675 47.9797C42.8623 47.9346 42.7721 47.8894 42.6819 47.8292C42.5917 47.7691 42.5315 47.6938 42.4714 47.5885C42.4263 47.4832 42.3962 47.3629 42.3962 47.2124C42.3962 47.0469 42.4413 46.8965 42.5165 46.7761C42.5917 46.6558 42.712 46.5655 42.8473 46.5053C42.9826 46.4451 43.1479 46.415 43.3284 46.415C43.5238 46.415 43.7042 46.4602 43.8546 46.5354C44.0049 46.6106 44.1402 46.7159 44.2304 46.8363L43.9598 47.1071C43.8696 47.0018 43.7794 46.9266 43.6741 46.8814C43.5689 46.8363 43.4637 46.8062 43.3284 46.8062C43.163 46.8062 43.0427 46.8363 42.9525 46.9115C42.8623 46.9867 42.8172 47.077 42.8172 47.2124C42.8172 47.3177 42.8473 47.3929 42.8924 47.4531C42.9525 47.5133 43.0126 47.5735 43.1028 47.6036C43.193 47.6337 43.2833 47.6788 43.3885 47.7239C43.4937 47.754 43.599 47.7992 43.7042 47.8443C43.8095 47.8894 43.8997 47.9346 43.9899 48.0098C44.0801 48.07 44.1402 48.1602 44.2003 48.2655C44.2605 48.3709 44.2755 48.5063 44.2755 48.6567C44.2755 48.9125 44.1853 49.1231 44.0049 49.2735C43.8245 49.424 43.5839 49.4992 43.2682 49.4992L43.2532 49.4691Z" fill="#9E4F39"/>
<path d="M45.9893 46.8209V46.4448H48.4098V46.8209H45.9893ZM46.9966 49.4387V46.5501H47.4025V49.4387H46.9966Z" fill="#9E4F39"/>
<path d="M50.4395 49.4387V46.4599H50.8454V49.4387H50.4395ZM50.7101 48.1298V47.7838H51.5219C51.7023 47.7838 51.8376 47.7387 51.9278 47.6484C52.0181 47.5581 52.0632 47.4378 52.0632 47.2873C52.0632 47.1519 52.0181 47.0316 51.9278 46.9263C51.8376 46.836 51.7023 46.7909 51.5219 46.7909H50.7101V46.4448H51.537C51.7324 46.4448 51.8827 46.4749 52.0331 46.5501C52.1684 46.6254 52.2887 46.7156 52.3638 46.851C52.439 46.9714 52.4841 47.1218 52.4841 47.2873C52.4841 47.4528 52.439 47.6033 52.3638 47.7236C52.2887 47.844 52.1834 47.9493 52.0331 48.0245C51.8827 48.0997 51.7324 48.1298 51.537 48.1298H50.7101ZM52.1534 49.4387L51.0709 48.0997L51.4468 47.9643L52.6495 49.4387H52.1383H52.1534Z" fill="#9E4F39"/>
<path d="M54.3037 49.4388L55.5215 46.46H55.8071L57.0249 49.4388H56.5889L55.5967 46.9113H55.747L54.7397 49.4388H54.3037ZM54.89 48.7618V48.4158H56.4536V48.7618H54.89Z" fill="#9E4F39"/>
<path d="M58.4082 46.8209V46.4448H60.8287V46.8209H58.4082ZM59.4155 49.4387V46.5501H59.8214V49.4387H59.4155Z" fill="#9E4F39"/>
<path d="M62.8574 49.4387V46.4599H63.2633V49.4387H62.8574ZM63.128 46.8209V46.4448H64.8119V46.8209H63.128ZM63.128 48.0847V47.7387H64.6916V48.0847H63.128ZM63.128 49.4387V49.0626H64.8419V49.4387H63.128Z" fill="#9E4F39"/>
<path d="M68.2105 49.4689C68 49.4689 67.8045 49.4238 67.6241 49.3486C67.4437 49.2734 67.2783 49.168 67.143 49.0176C67.0077 48.8822 66.9025 48.7167 66.8273 48.5211C66.7521 48.3406 66.707 48.13 66.707 47.9193C66.707 47.7087 66.7521 47.4981 66.8273 47.3175C66.9025 47.137 67.0077 46.9715 67.143 46.8361C67.2783 46.7007 67.4437 46.5803 67.6241 46.5051C67.8045 46.4299 68.015 46.3848 68.2255 46.3848C68.466 46.3848 68.6765 46.4299 68.887 46.5202C69.0824 46.6104 69.2478 46.7458 69.3831 46.9113L69.0975 47.1972C69.0073 47.0618 68.872 46.9565 68.7216 46.8812C68.5713 46.806 68.3909 46.7759 68.2105 46.7759C68 46.7759 67.8045 46.8211 67.6392 46.9264C67.4738 47.0166 67.3385 47.152 67.2483 47.3326C67.1581 47.4981 67.113 47.7087 67.113 47.9193C67.113 48.13 67.1581 48.3406 67.2483 48.5211C67.3385 48.7017 67.4738 48.822 67.6241 48.9273C67.7895 49.0176 67.9699 49.0778 68.1804 49.0778C68.3909 49.0778 68.5713 49.0326 68.7216 48.9574C68.872 48.8822 68.9922 48.7618 69.0825 48.5963C69.1727 48.4459 69.2027 48.2503 69.2027 48.0246L69.4433 48.2052H68.1503V47.8291H69.6086V47.8892C69.6086 48.2353 69.5485 48.5211 69.4282 48.7618C69.308 49.0026 69.1426 49.168 68.9171 49.2884C68.7066 49.4088 68.451 49.4689 68.1804 49.4689H68.2105Z" fill="#9E4F39"/>
<path d="M71.7285 49.4388V46.46H72.1347V49.4388H71.7285Z" fill="#9E4F39"/>
<path d="M75.7271 49.4689C75.5166 49.4689 75.3061 49.4238 75.1257 49.3486C74.9453 49.2734 74.7799 49.168 74.6446 49.0176C74.5093 48.8671 74.404 48.7167 74.3289 48.5211C74.2537 48.3406 74.2236 48.13 74.2236 47.9193C74.2236 47.7087 74.2537 47.4981 74.3289 47.3175C74.404 47.137 74.5093 46.9715 74.6446 46.8361C74.7799 46.7007 74.9453 46.5954 75.1257 46.5051C75.3061 46.4299 75.5015 46.3848 75.7271 46.3848C75.9676 46.3848 76.1631 46.4299 76.3435 46.5051C76.5239 46.5803 76.6742 46.7007 76.8095 46.8361L76.5239 47.122C76.4337 47.0166 76.3134 46.9264 76.1781 46.8662C76.0428 46.806 75.8924 46.7759 75.712 46.7759C75.5617 46.7759 75.4113 46.806 75.276 46.8662C75.1407 46.9264 75.0355 47.0016 74.9302 47.1069C74.84 47.2122 74.7649 47.3326 74.7047 47.468C74.6446 47.6034 74.6296 47.7689 74.6296 47.9344C74.6296 48.0999 74.6596 48.2503 74.7047 48.4008C74.7498 48.5362 74.84 48.6565 74.9302 48.7618C75.0205 48.8671 75.1407 48.9424 75.276 49.0026C75.4113 49.0627 75.5467 49.0928 75.712 49.0928C75.8924 49.0928 76.0578 49.0627 76.1931 49.0026C76.3284 48.9424 76.4487 48.8521 76.5389 48.7468L76.8246 49.0176C76.6893 49.153 76.5239 49.2734 76.3435 49.3486C76.1631 49.4238 75.9526 49.4689 75.712 49.4689H75.7271Z" fill="#9E4F39"/>
<path d="M82.6577 49.4689C82.4472 49.4689 82.2368 49.4238 82.0564 49.3486C81.8759 49.2734 81.7106 49.168 81.5753 49.0176C81.4399 48.8671 81.3347 48.7167 81.2595 48.5211C81.1844 48.3406 81.1543 48.13 81.1543 47.9193C81.1543 47.7087 81.1844 47.4981 81.2595 47.3175C81.3347 47.137 81.4399 46.9715 81.5753 46.8361C81.7106 46.7007 81.8759 46.5954 82.0564 46.5051C82.2368 46.4299 82.4322 46.3848 82.6577 46.3848C82.8983 46.3848 83.0937 46.4299 83.2741 46.5051C83.4545 46.5803 83.6049 46.7007 83.7402 46.8361L83.4545 47.122C83.3643 47.0166 83.2441 46.9264 83.1088 46.8662C82.9734 46.806 82.8231 46.7759 82.6427 46.7759C82.4924 46.7759 82.342 46.806 82.2067 46.8662C82.0714 46.9264 81.9661 47.0016 81.8609 47.1069C81.7707 47.2122 81.6955 47.3326 81.6354 47.468C81.5753 47.6034 81.5602 47.7689 81.5602 47.9344C81.5602 48.0999 81.5903 48.2503 81.6354 48.4008C81.6805 48.5362 81.7707 48.6565 81.8609 48.7618C81.9511 48.8671 82.0714 48.9424 82.2067 49.0026C82.342 49.0627 82.4773 49.0928 82.6427 49.0928C82.8231 49.0928 82.9885 49.0627 83.1238 49.0026C83.2591 48.9424 83.3794 48.8521 83.4696 48.7468L83.7552 49.0176C83.6199 49.153 83.4545 49.2734 83.2741 49.3486C83.0937 49.4238 82.8832 49.4689 82.6427 49.4689H82.6577Z" fill="#9E4F39"/>
<path d="M85.5146 49.4388L86.7324 46.46H87.0181L88.2358 49.4388H87.7999L86.8076 46.9113H86.9579L85.9506 49.4388H85.5146ZM86.101 48.7618V48.4158H87.6646V48.7618H86.101Z" fill="#9E4F39"/>
<path d="M90.2354 49.4387V46.4599H90.6413V49.4387H90.2354ZM90.506 48.1298V47.7838H91.3178C91.4982 47.7838 91.6335 47.7387 91.7237 47.6484C91.8139 47.5581 91.8591 47.4378 91.8591 47.2873C91.8591 47.1519 91.8139 47.0316 91.7237 46.9263C91.6335 46.836 91.4982 46.7909 91.3178 46.7909H90.506V46.4448H91.3329C91.5283 46.4448 91.6937 46.4749 91.829 46.5501C91.9643 46.6254 92.0846 46.7156 92.1597 46.851C92.2349 46.9714 92.28 47.1218 92.28 47.2873C92.28 47.4528 92.2349 47.6033 92.1597 47.7236C92.0846 47.844 91.9793 47.9493 91.829 48.0245C91.6937 48.0997 91.5283 48.1298 91.3329 48.1298H90.506ZM91.9493 49.4387L90.8668 48.0997L91.2426 47.9643L92.4454 49.4387H91.9342H91.9493Z" fill="#9E4F39"/>
<path d="M94.415 49.4387V46.4599H94.821V49.4387H94.415ZM94.7007 46.8209V46.4448H96.3845V46.8209H94.7007ZM94.7007 48.0847V47.7387H96.2643V48.0847H94.7007ZM94.7007 49.4387V49.0626H96.4146V49.4387H94.7007Z" fill="#9E4F39"/>
<path d="M98.4893 49.4387V46.4599H98.8952V49.4387H98.4893ZM98.7749 46.8209V46.4448H100.459V46.8209H98.7749ZM98.7749 48.0847V47.7387H100.338V48.0847H98.7749ZM98.7749 49.4387V49.0626H100.489V49.4387H98.7749Z" fill="#9E4F39"/>
<path d="M102.578 49.4387V46.4599H102.984V49.4387H102.578ZM102.849 48.1298V47.7838H103.661C103.841 47.7838 103.976 47.7387 104.067 47.6484C104.157 47.5581 104.202 47.4378 104.202 47.2873C104.202 47.1519 104.157 47.0316 104.067 46.9263C103.976 46.836 103.841 46.7909 103.661 46.7909H102.849V46.4448H103.676C103.871 46.4448 104.036 46.4749 104.172 46.5501C104.307 46.6254 104.427 46.7156 104.503 46.851C104.578 46.9714 104.623 47.1218 104.623 47.2873C104.623 47.4528 104.578 47.6033 104.503 47.7236C104.427 47.844 104.322 47.9493 104.172 48.0245C104.036 48.0997 103.871 48.1298 103.676 48.1298H102.849ZM104.292 49.4387L103.21 48.0997L103.585 47.9643L104.788 49.4387H104.277H104.292Z" fill="#9E4F39"/>
<path d="M108.924 49.4388L110.142 46.46H110.427L111.645 49.4388H111.209L110.217 46.9113H110.367L109.36 49.4388H108.924ZM109.495 48.7618V48.4158H111.059V48.7618H109.495Z" fill="#9E4F39"/>
<path d="M113.629 49.4387V46.4599H114.035V49.4387H113.629ZM113.9 49.4387V49.0626H114.726C114.952 49.0626 115.147 49.0175 115.313 48.9122C115.478 48.8219 115.613 48.6865 115.704 48.521C115.794 48.3555 115.839 48.1599 115.839 47.9343C115.839 47.7086 115.794 47.528 115.704 47.3475C115.613 47.167 115.478 47.0466 115.313 46.9563C115.147 46.8661 114.952 46.8209 114.741 46.8209H113.915V46.4448H114.741C114.952 46.4448 115.162 46.49 115.343 46.5501C115.523 46.6103 115.689 46.7307 115.824 46.8661C115.959 47.0015 116.064 47.1519 116.14 47.3325C116.215 47.513 116.26 47.7086 116.26 47.9192C116.26 48.1298 116.215 48.3254 116.14 48.506C116.064 48.6865 115.959 48.852 115.824 48.9723C115.689 49.0927 115.523 49.2131 115.343 49.2883C115.162 49.3635 114.952 49.3936 114.741 49.3936H113.9V49.4387Z" fill="#9E4F39"/>
<path d="M119.326 49.4388L118.139 46.46H118.575L119.552 48.9875H119.387L120.379 46.46H120.815L119.612 49.4388H119.326Z" fill="#9E4F39"/>
<path d="M122.86 49.4388V46.46H123.267V49.4388H122.86Z" fill="#9E4F39"/>
<path d="M126.273 49.4691C126.032 49.4691 125.837 49.424 125.671 49.3337C125.506 49.2434 125.356 49.1231 125.235 48.9576L125.506 48.6868C125.596 48.8222 125.716 48.9125 125.837 48.9877C125.957 49.0479 126.107 49.093 126.288 49.093C126.468 49.093 126.603 49.0479 126.709 48.9726C126.814 48.8974 126.874 48.7921 126.874 48.6567C126.874 48.5514 126.844 48.4611 126.799 48.3859C126.754 48.3107 126.679 48.2655 126.588 48.2204C126.498 48.1753 126.408 48.1301 126.303 48.1C126.198 48.07 126.092 48.0248 125.987 47.9797C125.882 47.9346 125.792 47.8894 125.701 47.8292C125.611 47.7691 125.551 47.6938 125.491 47.5885C125.446 47.4832 125.416 47.3629 125.416 47.2124C125.416 47.0469 125.461 46.8965 125.536 46.7761C125.611 46.6558 125.731 46.5655 125.867 46.5053C126.002 46.4451 126.167 46.415 126.348 46.415C126.543 46.415 126.724 46.4602 126.874 46.5354C127.024 46.6106 127.16 46.7159 127.25 46.8363L126.979 47.1071C126.889 47.0018 126.799 46.9266 126.694 46.8814C126.588 46.8363 126.483 46.8062 126.348 46.8062C126.183 46.8062 126.062 46.8363 125.972 46.9115C125.882 46.9867 125.837 47.077 125.837 47.2124C125.837 47.3177 125.867 47.3929 125.912 47.4531C125.972 47.5133 126.032 47.5735 126.122 47.6036C126.213 47.6337 126.303 47.6788 126.408 47.7239C126.513 47.754 126.619 47.7992 126.724 47.8443C126.829 47.8894 126.919 47.9346 127.009 48.0098C127.1 48.07 127.16 48.1602 127.22 48.2655C127.28 48.3709 127.295 48.5063 127.295 48.6567C127.295 48.9125 127.205 49.1231 127.024 49.2735C126.844 49.424 126.603 49.4992 126.288 49.4992L126.273 49.4691Z" fill="#9E4F39"/>
<path d="M130.738 49.4689C130.527 49.4689 130.332 49.4238 130.151 49.3486C129.971 49.2734 129.806 49.153 129.67 49.0176C129.535 48.8822 129.43 48.7167 129.355 48.5211C129.279 48.3406 129.234 48.13 129.234 47.9193C129.234 47.7087 129.279 47.4981 129.355 47.3175C129.43 47.137 129.535 46.9715 129.67 46.8361C129.806 46.7007 129.971 46.5803 130.151 46.5051C130.332 46.4299 130.527 46.3848 130.738 46.3848C130.948 46.3848 131.144 46.4299 131.324 46.5051C131.505 46.5803 131.67 46.6857 131.805 46.8361C131.941 46.9715 132.046 47.137 132.121 47.3326C132.196 47.5131 132.241 47.7237 132.241 47.9344C132.241 48.145 132.196 48.3406 132.121 48.5362C132.046 48.7167 131.941 48.8822 131.805 49.0326C131.67 49.1831 131.505 49.2884 131.324 49.3636C131.144 49.4388 130.948 49.484 130.738 49.484V49.4689ZM130.738 49.0928C130.948 49.0928 131.144 49.0477 131.309 48.9424C131.474 48.8371 131.595 48.7017 131.7 48.5362C131.805 48.3707 131.835 48.16 131.835 47.9344C131.835 47.7689 131.805 47.6184 131.76 47.483C131.7 47.3476 131.625 47.2273 131.535 47.122C131.444 47.0166 131.324 46.9414 131.189 46.8812C131.054 46.8211 130.918 46.791 130.753 46.791C130.542 46.791 130.362 46.8361 130.197 46.9414C130.031 47.0317 129.911 47.1671 129.821 47.3476C129.731 47.5131 129.685 47.7237 129.685 47.9344C129.685 48.0999 129.715 48.2503 129.761 48.4008C129.806 48.5362 129.881 48.6565 129.986 48.7618C130.076 48.8671 130.197 48.9424 130.332 49.0026C130.467 49.0627 130.618 49.0928 130.768 49.0928H130.738Z" fill="#9E4F39"/>
<path d="M134.33 49.4387V46.4599H134.736V49.4387H134.33ZM134.601 48.1298V47.7838H135.413C135.593 47.7838 135.728 47.7387 135.818 47.6484C135.909 47.5581 135.954 47.4378 135.954 47.2873C135.954 47.1519 135.909 47.0316 135.818 46.9263C135.728 46.836 135.593 46.7909 135.413 46.7909H134.601V46.4448H135.428C135.623 46.4448 135.788 46.4749 135.924 46.5501C136.059 46.6254 136.179 46.7156 136.254 46.851C136.33 46.9714 136.375 47.1218 136.375 47.2873C136.375 47.4528 136.33 47.6033 136.254 47.7236C136.179 47.844 136.074 47.9493 135.924 48.0245C135.788 48.0997 135.623 48.1298 135.428 48.1298H134.601ZM136.044 49.4387L134.962 48.0997L135.337 47.9643L136.54 49.4387H136.029H136.044Z" fill="#9E4F39"/>
<path d="M139.277 48.2201L138.104 46.4448H138.571L139.518 47.8891H139.307L140.254 46.4448H140.72L139.548 48.2201H139.292H139.277ZM139.217 49.4387V47.9643H139.623V49.4387H139.217Z" fill="#9E4F39"/>
</svg>
