<svg width="384" height="160" viewBox="0 0 384 160" fill="none" xmlns="http://www.w3.org/2000/svg">
<g id="Group 6">
<g id="Group 5">
<path id="purpose" d="M5.375 155.312C4.875 155.312 4.14583 155.25 3.1875 155.125C2.1875 155.042 1.39583 154.917 0.8125 154.75C4.02083 150.417 7.64583 145.521 11.6875 140.062C15.7292 134.604 19.9167 128.917 24.25 123C28.5417 117.083 32.75 111.292 36.875 105.625C40.9583 99.9167 44.625 94.6875 47.875 89.9375C50.2917 86.6042 52.3125 83.8333 53.9375 81.625C55.5625 79.4167 57.0625 77.3958 58.4375 75.5625C59.8542 73.7292 61.3542 71.75 62.9375 69.625C64.5625 67.5 66.5208 64.8958 68.8125 61.8125C71.1458 58.6875 74.0833 54.7292 77.625 49.9375C79.125 50.1042 80.3125 50.2083 81.1875 50.25C82.1042 50.2917 82.875 50.3125 83.5 50.3125C84.0833 50.3125 84.6667 50.2917 85.25 50.25C85.875 50.1667 86.4792 50.0417 87.0625 49.875C83.3958 54.3333 80.3125 58.0833 77.8125 61.125C75.3125 64.125 73.2083 66.6875 71.5 68.8125C69.7917 70.8958 68.2708 72.7917 66.9375 74.5C65.6042 76.2083 64.2708 77.9375 62.9375 79.6875C61.6458 81.4375 60.1458 83.4792 58.4375 85.8125C56.7292 88.1042 54.6042 90.9583 52.0625 94.375L52.5 94.875C65.4583 82.4167 75.0208 74.5833 81.1875 71.375C83.1458 70.375 84.875 69.6042 86.375 69.0625C87.9167 68.4792 89.9583 68.1875 92.5 68.1875C94.5833 68.1875 96.0833 68.6667 97 69.625C97.9583 70.5833 98.4375 71.8333 98.4375 73.375C98.4375 76.5417 97.0417 80 94.25 83.75C91.5 87.5 86.625 91.8542 79.625 96.8125C75.4583 99.7708 72.75 101.917 71.5 103.25C70.25 104.542 69.625 105.646 69.625 106.562C69.625 108.438 71.1042 109.375 74.0625 109.375C76.9792 109.375 79.9583 108.458 83 106.625C86.0417 104.75 88.9792 102.479 91.8125 99.8125C94.6458 97.1042 97.1875 94.4375 99.4375 91.8125C101.729 89.1875 103.521 87.125 104.812 85.625L106.188 86.6875C104.938 88.1042 103.146 90.1458 100.812 92.8125C98.5208 95.4792 95.8542 98.2292 92.8125 101.062C89.8125 103.854 86.6667 106.229 83.375 108.188C80.0833 110.146 76.8542 111.125 73.6875 111.125C71.2292 111.125 69.3958 110.583 68.1875 109.5C67.0208 108.375 66.4375 106.854 66.4375 104.938C66.4375 102.104 68 98.7083 71.125 94.75C74.25 90.7917 79.5417 86.0417 87 80.5C90.7083 77.8333 92.9792 75.8958 93.8125 74.6875C94.6458 73.4792 95.0625 72.5 95.0625 71.75C95.0625 71.25 94.8333 70.7917 94.375 70.375C93.9583 69.9583 93.3333 69.75 92.5 69.75C90.5417 69.75 88.625 70.0833 86.75 70.75C84.875 71.4167 82.8542 72.3958 80.6875 73.6875C78.0208 75.2292 75 77.3333 71.625 80C68.25 82.6667 64.7708 85.6667 61.1875 89C57.6042 92.2917 54.0833 95.7292 50.625 99.3125C47.2083 102.896 44.0625 106.396 41.1875 109.812C39.1042 112.562 36.7917 115.812 34.25 119.562C31.6667 123.312 29.0833 127.167 26.5 131.125C23.875 135.083 21.4583 138.792 19.25 142.25C17 145.708 15.1667 148.583 13.75 150.875C12.2917 153.167 11.4583 154.479 11.25 154.812C10.8333 154.938 10.1458 155.042 9.1875 155.125C8.22917 155.25 6.95833 155.312 5.375 155.312ZM101.812 111.125C99.1042 111.125 97.1667 110.458 96 109.125C94.8333 107.792 94.2292 106.354 94.1875 104.812C94.0208 101.729 95.1875 98.375 97.6875 94.75C100.146 91.125 103.688 86.6042 108.312 81.1875C109.938 79.2708 111.625 77.2083 113.375 75C115.167 72.7917 117.021 70.6458 118.938 68.5625C120.354 68.8125 122.021 68.9375 123.938 68.9375C124.521 68.9375 125.333 68.9167 126.375 68.875C127.417 68.8333 128.104 68.7917 128.438 68.75C124.896 72.5417 121.354 76.5417 117.812 80.75C114.271 84.9583 111.104 88.7708 108.312 92.1875C107.396 93.3125 106.208 94.7292 104.75 96.4375C103.292 98.1042 102 99.8958 100.875 101.812C99.7917 103.688 99.2708 105.521 99.3125 107.312C99.3125 107.896 99.5208 108.417 99.9375 108.875C100.354 109.333 101.146 109.562 102.312 109.562C103.146 109.562 104.438 109.292 106.188 108.75C107.979 108.208 109.875 107.292 111.875 106C114.667 104.125 117.833 101.562 121.375 98.3125C124.917 95.0208 128.771 90.7917 132.938 85.625C133.854 84.5 134.604 83.5833 135.188 82.875C135.771 82.1667 136.312 81.5208 136.812 80.9375C138.271 79.1458 139.854 77.2292 141.562 75.1875C143.271 73.1458 145.125 70.9375 147.125 68.5625C148.458 68.6875 149.396 68.7917 149.938 68.875C150.479 68.9167 151.208 68.9375 152.125 68.9375C154.083 68.9375 155.583 68.875 156.625 68.75C154.167 71.4167 151.354 74.6458 148.188 78.4375C145.062 82.2292 141.958 86.0417 138.875 89.875C135.792 93.6667 133.083 97 130.75 99.875C128.75 102.208 127.479 103.812 126.938 104.688C126.438 105.521 126.188 106.333 126.188 107.125C126.229 107.625 126.396 108.125 126.688 108.625C127.021 109.125 127.938 109.375 129.438 109.375C131.646 109.375 134.042 108.646 136.625 107.188C139.25 105.729 141.833 103.917 144.375 101.75C146.958 99.5417 149.354 97.2917 151.562 95C153.812 92.7083 155.708 90.6875 157.25 88.9375C158.792 87.1875 159.792 86.0833 160.25 85.625L161.5 86.6875C161 87.2292 159.938 88.3958 158.312 90.1875C156.729 91.9792 154.771 94.0625 152.438 96.4375C150.104 98.7708 147.583 101.062 144.875 103.312C142.208 105.562 139.5 107.438 136.75 108.938C134 110.396 131.417 111.125 129 111.125C127.333 111.125 125.938 110.667 124.812 109.75C123.688 108.792 123.104 107.479 123.062 105.812C123.021 104.312 123.229 102.75 123.688 101.125C124.188 99.5 125.021 97.6667 126.188 95.625C120.979 101.25 116.312 105.312 112.188 107.812C110.062 109.104 108.125 109.979 106.375 110.438C104.625 110.896 103.104 111.125 101.812 111.125ZM170.25 111.125C167.917 111.125 166.021 110.542 164.562 109.375C163.104 108.167 162.375 106.604 162.375 104.688C162.375 101.354 164.812 97.3333 169.688 92.625C174.562 87.9167 181.167 82.7708 189.5 77.1875C185.25 76.4792 181.583 75.7708 178.5 75.0625C175.458 74.3542 173.021 73.5833 171.188 72.75C170.354 74.4167 169.146 76.4583 167.562 78.875C165.979 81.2917 163.958 83.8958 161.5 86.6875C159.833 88.6458 158.583 90.0208 157.75 90.8125C156.917 91.6042 156.333 92.0833 156 92.25C155.708 92.375 155.542 92.4792 155.5 92.5625C155.375 92.6042 155.292 92.4792 155.25 92.1875C155.25 91.8958 155.271 91.6667 155.312 91.5C155.312 91.3333 155.625 90.9375 156.25 90.3125C156.875 89.6875 158.188 88.125 160.188 85.625C162.271 83 164.125 80.5 165.75 78.125C167.375 75.75 168.625 73.6667 169.5 71.875C168 70.9167 167.125 69.8542 166.875 68.6875C166.542 66.6875 166.938 64.875 168.062 63.25C169.188 61.625 170.646 60.8125 172.438 60.8125C174.646 60.8125 175.75 61.7708 175.75 63.6875C175.75 64.6458 175.562 65.4583 175.188 66.125C174.812 66.7917 174.438 67.4375 174.062 68.0625C173.312 68.9375 172.938 70.0417 172.938 71.375C172.938 71.7917 173.646 72.25 175.062 72.75C176.521 73.2083 178.292 73.6667 180.375 74.125C182.5 74.5417 184.583 74.9167 186.625 75.25C188.667 75.5417 190.271 75.7292 191.438 75.8125C192.229 75.8542 192.708 76 192.875 76.25C193.083 76.4583 193.188 76.625 193.188 76.75C193.188 77.1667 192.583 77.8542 191.375 78.8125C189.083 80.5625 186.729 82.6875 184.312 85.1875C181.896 87.6458 179.646 90.2083 177.562 92.875C175.479 95.5 173.792 97.9792 172.5 100.312C171.208 102.646 170.562 104.562 170.562 106.062C170.562 108.021 171.354 109 172.938 109C174.979 109 177.208 108.312 179.625 106.938C182.042 105.562 184.479 103.833 186.938 101.75C189.438 99.6667 191.771 97.5208 193.938 95.3125C196.146 93.0625 198.042 91.0625 199.625 89.3125C201.208 87.5208 202.312 86.2917 202.938 85.625L204.188 86.6875C203.271 87.5625 201.958 88.9583 200.25 90.875C198.583 92.75 196.625 94.8542 194.375 97.1875C192.125 99.4792 189.667 101.688 187 103.812C184.375 105.938 181.646 107.688 178.812 109.062C175.979 110.438 173.125 111.125 170.25 111.125ZM157.25 155.312C156.75 155.312 156.021 155.25 155.062 155.125C154.062 155.042 153.271 154.917 152.688 154.75C155.896 150.417 159.521 145.521 163.562 140.062C167.604 134.604 171.792 128.917 176.125 123C180.417 117.083 184.625 111.292 188.75 105.625C192.833 99.9167 196.5 94.6875 199.75 89.9375C202.167 86.6042 204.188 83.8333 205.812 81.625C207.438 79.4167 208.938 77.3958 210.312 75.5625C211.729 73.7292 213.229 71.75 214.812 69.625C216.438 67.5 218.396 64.8958 220.688 61.8125C223.021 58.6875 225.958 54.7292 229.5 49.9375C231 50.1042 232.188 50.2083 233.062 50.25C233.979 50.2917 234.75 50.3125 235.375 50.3125C235.958 50.3125 236.542 50.2917 237.125 50.25C237.75 50.1667 238.354 50.0417 238.938 49.875C235.271 54.3333 232.188 58.0833 229.688 61.125C227.188 64.125 225.083 66.6875 223.375 68.8125C221.667 70.8958 220.146 72.7917 218.812 74.5C217.479 76.2083 216.146 77.9375 214.812 79.6875C213.521 81.4375 212.021 83.4792 210.312 85.8125C208.604 88.1042 206.479 90.9583 203.938 94.375L204.375 94.875C217.333 82.4167 226.896 74.5833 233.062 71.375C235.021 70.375 236.75 69.6042 238.25 69.0625C239.792 68.4792 241.833 68.1875 244.375 68.1875C246.458 68.1875 247.958 68.6667 248.875 69.625C249.833 70.5833 250.312 71.8333 250.312 73.375C250.312 76.5417 248.917 80 246.125 83.75C243.375 87.5 238.5 91.8542 231.5 96.8125C227.333 99.7708 224.625 101.917 223.375 103.25C222.125 104.542 221.5 105.646 221.5 106.562C221.5 108.438 222.979 109.375 225.938 109.375C228.854 109.375 231.833 108.458 234.875 106.625C237.917 104.75 240.854 102.479 243.688 99.8125C246.521 97.1042 249.062 94.4375 251.312 91.8125C253.604 89.1875 255.396 87.125 256.688 85.625L258.062 86.6875C256.812 88.1042 255.021 90.1458 252.688 92.8125C250.396 95.4792 247.729 98.2292 244.688 101.062C241.688 103.854 238.542 106.229 235.25 108.188C231.958 110.146 228.729 111.125 225.562 111.125C223.104 111.125 221.271 110.583 220.062 109.5C218.896 108.375 218.312 106.854 218.312 104.938C218.312 102.104 219.875 98.7083 223 94.75C226.125 90.7917 231.417 86.0417 238.875 80.5C242.583 77.8333 244.854 75.8958 245.688 74.6875C246.521 73.4792 246.938 72.5 246.938 71.75C246.938 71.25 246.708 70.7917 246.25 70.375C245.833 69.9583 245.208 69.75 244.375 69.75C242.417 69.75 240.5 70.0833 238.625 70.75C236.75 71.4167 234.729 72.3958 232.562 73.6875C229.896 75.2292 226.875 77.3333 223.5 80C220.125 82.6667 216.646 85.6667 213.062 89C209.479 92.2917 205.958 95.7292 202.5 99.3125C199.083 102.896 195.938 106.396 193.062 109.812C190.979 112.562 188.667 115.812 186.125 119.562C183.542 123.312 180.958 127.167 178.375 131.125C175.75 135.083 173.333 138.792 171.125 142.25C168.875 145.708 167.042 148.583 165.625 150.875C164.167 153.167 163.333 154.479 163.125 154.812C162.708 154.938 162.021 155.042 161.062 155.125C160.104 155.25 158.833 155.312 157.25 155.312ZM260.375 111.125C256.875 111.125 254.292 110.333 252.625 108.75C250.958 107.125 250.021 105.146 249.812 102.812C249.688 99.9792 250.271 96.9375 251.562 93.6875C252.896 90.4375 254.333 87.7083 255.875 85.5C257.917 82.625 260.396 79.875 263.312 77.25C266.229 74.5833 269.417 72.4167 272.875 70.75C276.375 69.0417 279.958 68.1875 283.625 68.1875C285.833 68.1875 287.729 68.7708 289.312 69.9375C290.938 71.0625 291.833 72.875 292 75.375C292.208 78.9167 291.521 82.6458 289.938 86.5625C288.354 90.4375 286.208 94.0417 283.5 97.375C283.792 98.5833 284.729 99.1875 286.312 99.1875C287.854 99.1875 289.542 98.5833 291.375 97.375C293.208 96.125 294.979 94.6667 296.688 93C298.438 91.3333 299.938 89.7917 301.188 88.375C302.438 86.9583 303.271 86.0417 303.688 85.625L305.062 86.6875C304.271 87.4375 303.146 88.6042 301.688 90.1875C300.229 91.7292 298.604 93.3333 296.812 95C295.062 96.625 293.25 98.0208 291.375 99.1875C289.542 100.354 287.812 100.938 286.188 100.938C284.188 100.938 282.833 100.312 282.125 99.0625C279.042 102.562 275.562 105.458 271.688 107.75C267.854 110 264.083 111.125 260.375 111.125ZM262 109.25C263.458 109.25 265.146 108.833 267.062 108C268.979 107.167 270.896 106.062 272.812 104.688C276.021 102.396 278.917 99.7083 281.5 96.625V96.375C281.5 93.7917 282.167 91.75 283.5 90.25C284.875 88.7083 286.208 87.7292 287.5 87.3125C289.542 83.0625 290.458 79.25 290.25 75.875C290.125 73.8333 289.583 72.4167 288.625 71.625C287.708 70.8333 286.688 70.4375 285.562 70.4375C283.146 70.4375 280.167 71.875 276.625 74.75C273.125 77.5833 269.208 81.6875 264.875 87.0625C261.792 90.9375 259.625 94.2083 258.375 96.875C257.167 99.5417 256.646 101.854 256.812 103.812C256.812 104.938 257.188 106.125 257.938 107.375C258.729 108.625 260.083 109.25 262 109.25ZM300.25 112.438C298.958 112.438 297.292 112.271 295.25 111.938C293.208 111.604 291.396 110.896 289.812 109.812C288.188 108.729 287.375 107.042 287.375 104.75C287.375 102.667 288.021 100.958 289.312 99.625C290.562 98.25 291.958 97.2292 293.5 96.5625C295.042 95.8958 296.188 95.5625 296.938 95.5625C298.646 95.5625 299.5 96.3542 299.5 97.9375C299.458 98.6042 298.979 99.2292 298.062 99.8125C297.188 100.354 296.208 100.625 295.125 100.625C294.625 100.625 294.146 100.458 293.688 100.125C293.188 99.75 292.792 99.4792 292.5 99.3125C292.042 99.7708 291.354 100.458 290.438 101.375C289.479 102.25 289 103.396 289 104.812C289 106.396 289.646 107.583 290.938 108.375C292.188 109.125 293.604 109.625 295.188 109.875C296.771 110.083 297.979 110.188 298.812 110.188C300.562 110.188 302.75 109.5 305.375 108.125C308 106.708 310.438 104.354 312.688 101.062C314.979 97.7708 316.458 93.2917 317.125 87.625C317.333 85.625 317.521 82.8542 317.688 79.3125C317.896 75.7708 318.562 72.375 319.688 69.125C319.729 69 319.75 68.8125 319.75 68.5625C318.167 70.5208 316.458 72.625 314.625 74.875C312.792 77.125 311.021 79.2917 309.312 81.375C307.646 83.4583 306.208 85.2292 305 86.6875C304.167 87.6875 303.562 88.3333 303.188 88.625C302.812 88.9167 302.646 89.0625 302.688 89.0625C302.646 89.0625 302.479 89.0833 302.188 89.125C301.938 89.125 301.729 88.9792 301.562 88.6875C301.479 88.4792 301.667 88.0833 302.125 87.5C302.625 86.9167 303.146 86.2917 303.688 85.625C304.646 84.5417 306.125 82.8125 308.125 80.4375C310.125 78.0625 312.229 75.5208 314.438 72.8125C316.688 70.1042 318.625 67.7083 320.25 65.625C320.5 64.375 320.875 63.25 321.375 62.25C321.875 61.25 322.583 60.75 323.5 60.75C325.167 60.75 326 61.4375 326 62.8125C325.958 63.6042 325 65.0833 323.125 67.25C322 68.5833 321.396 69.4583 321.312 69.875C321.229 70.25 321.188 70.75 321.188 71.375C321.146 72.875 321.292 74.75 321.625 77C322 79.2083 322.396 81.5417 322.812 84C323.229 86.4167 323.5 88.7292 323.625 90.9375C323.75 94.2292 323.375 97.0833 322.5 99.5C323.167 99.5833 323.729 99.625 324.188 99.625C325.521 99.625 327.042 99.0208 328.75 97.8125C330.5 96.6042 332.229 95.1667 333.938 93.5C335.646 91.8333 337.125 90.25 338.375 88.75C339.667 87.25 340.521 86.2083 340.938 85.625L342.312 86.6875C341.604 87.4375 340.562 88.6042 339.188 90.1875C337.812 91.7292 336.25 93.3542 334.5 95.0625C332.75 96.7292 330.958 98.1667 329.125 99.375C327.333 100.542 325.625 101.125 324 101.125C323.625 101.125 323.271 101.125 322.938 101.125C322.604 101.083 322.271 101.042 321.938 101C319.979 105.333 317.083 108.333 313.25 110C309.417 111.625 305.083 112.438 300.25 112.438ZM345.562 111.375C341.479 111.375 338.562 110.312 336.812 108.188C335.062 106.062 334.146 103.458 334.062 100.375C334.021 98.125 334.479 95.625 335.438 92.875C336.396 90.125 337.396 88.0208 338.438 86.5625C341.521 82.2708 344.854 78.7708 348.438 76.0625C352.021 73.3542 355.521 71.375 358.938 70.125C362.396 68.8333 365.438 68.1875 368.062 68.1875C370.604 68.1875 372.375 68.6042 373.375 69.4375C374.417 70.2708 374.958 71.2292 375 72.3125C375.125 73.9375 374.25 75.8333 372.375 78C370.542 80.125 367.312 82.4375 362.688 84.9375C358.062 87.4375 351.604 90.0625 343.312 92.8125C341.854 95.1458 340.875 97.1667 340.375 98.875C339.875 100.542 339.625 102.042 339.625 103.375C339.625 105.333 340.271 106.854 341.562 107.938C342.896 109.021 344.458 109.562 346.25 109.562C350.167 109.562 353.833 108.833 357.25 107.375C360.708 105.875 363.854 104 366.688 101.75C369.562 99.5 372.083 97.2292 374.25 94.9375C376.417 92.6042 378.188 90.5833 379.562 88.875C380.938 87.125 381.854 86.0417 382.312 85.625L383.625 86.6875C383 87.2292 381.938 88.4167 380.438 90.25C378.979 92.0833 377.104 94.1875 374.812 96.5625C372.562 98.9375 369.958 101.25 367 103.5C364.042 105.75 360.75 107.625 357.125 109.125C353.542 110.625 349.688 111.375 345.562 111.375ZM344.75 90.625C352.833 87.7917 359.208 84.875 363.875 81.875C368.542 78.8333 370.875 75.9375 370.875 73.1875C370.875 70.8542 369.792 69.6875 367.625 69.6875C364.833 69.6875 361.812 71.1875 358.562 74.1875C355.312 77.1875 351.521 81.5417 347.188 87.25C346.271 88.4167 345.458 89.5417 344.75 90.625Z" fill="#FF0000"/>
</g>
</g>
</svg>
